<?xml version="1.0" encoding="UTF-8" standalone="no"?>
<svg width="78px" height="61px" viewBox="0 0 78 61" version="1.1" xmlns="http://www.w3.org/2000/svg" xmlns:xlink="http://www.w3.org/1999/xlink">
    <!-- Generator: sketchtool 40.3 (33839) - http://www.bohemiancoding.com/sketch -->
    <title>56A33771-4E7D-4C34-915C-4B1A2AA935B1</title>
    <desc>Created with sketchtool.</desc>
    <defs></defs>
    <g id="Page-1" stroke="none" stroke-width="1" fill="none" fill-rule="evenodd">
        <g id="Main" transform="translate(-1091.000000, -829.000000)">
            <g id="Group-10" transform="translate(151.000000, 824.000000)">
                <g id="Page-10" transform="translate(941.000000, 6.000000)">
                    <g id="Page-1">
                        <path d="M31.1117,16.1525 L31.1117,0.0005 C10.1117,0.0005 5.9877,11.7675 5.9877,23.3145 C5.9877,26.1435 5.7937,30.9375 9.6767,35.3965" id="Stroke-1" stroke="#FFFFFF" stroke-width="2" stroke-linecap="round" stroke-linejoin="round"></path>
                        <path d="M66.0839,34.4988 C69.5569,31.0258 69.0279,26.5878 69.0279,23.8878 C69.0279,23.5768 68.9659,23.1528 68.9509,23.1528 L39.1119,23.1528" id="Stroke-3" stroke="#FFFFFF" stroke-width="2" stroke-linecap="round" stroke-linejoin="round"></path>
                        <path d="M30.9608,45.9392 C30.9608,53.0982 25.1578,58.9022 17.9988,58.9022 C10.8388,58.9022 5.0348,53.0982 5.0348,45.9392 C5.0348,38.7802 10.8388,32.9762 17.9988,32.9762 C25.1578,32.9762 30.9608,38.7802 30.9608,45.9392 L30.9608,45.9392 Z" id="Stroke-5" stroke="#FFFFFF" stroke-width="2" stroke-linecap="round"></path>
                        <path d="M19.6953,46.0163 C19.6953,46.9963 18.9013,47.7913 17.9203,47.7913 C16.9403,47.7913 16.1463,46.9963 16.1463,46.0163 C16.1463,45.0363 16.9403,44.2413 17.9203,44.2413 C18.9013,44.2413 19.6953,45.0363 19.6953,46.0163" id="Fill-7" fill="#FFFFFF"></path>
                        <path d="M71.7018,45.9392 C71.7018,53.0982 65.8988,58.9022 58.7398,58.9022 C51.5798,58.9022 45.7758,53.0982 45.7758,45.9392 C45.7758,38.7802 51.5798,32.9762 58.7398,32.9762 C65.8988,32.9762 71.7018,38.7802 71.7018,45.9392 L71.7018,45.9392 Z" id="Stroke-9" stroke="#FFFFFF" stroke-width="2" stroke-linecap="round"></path>
                        <path d="M60.4363,46.0163 C60.4363,46.9963 59.6423,47.7913 58.6613,47.7913 C57.6813,47.7913 56.8873,46.9963 56.8873,46.0163 C56.8873,45.0363 57.6813,44.2413 58.6613,44.2413 C59.6423,44.2413 60.4363,45.0363 60.4363,46.0163" id="Fill-11" fill="#FFFFFF"></path>
                        <path d="M38.7992,23.1525 C34.6362,23.1525 31.1432,20.0395 31.1432,15.8765" id="Stroke-13" stroke="#FFFFFF" stroke-width="2" stroke-linecap="round" stroke-linejoin="round"></path>
                        <path d="M75.3862,9.7338 C69.7532,9.6568 65.2012,12.6658 65.0462,23.0058" id="Stroke-15" stroke="#FFFFFF" stroke-width="2" stroke-linecap="round"></path>
                        <path d="M30.9415,45.7679 L45.3705,45.7679" id="Stroke-17" stroke="#FFFFFF" stroke-width="2" stroke-linecap="round" stroke-linejoin="round"></path>
                        <path d="M0,22.5425 L21.605,22.5425" id="Stroke-19" stroke="#FFFFFF" stroke-width="2" stroke-linecap="round" stroke-linejoin="round"></path>
                        <path d="M5.607,5.0012 L21.656,22.2852" id="Stroke-21" stroke="#FFFFFF" stroke-width="2" stroke-linecap="round" stroke-linejoin="round"></path>
                        <path d="M0.5401,12.743 L19.8051,21.617" id="Stroke-23" stroke="#FFFFFF" stroke-width="2" stroke-linecap="round" stroke-linejoin="round"></path>
                    </g>
                </g>
            </g>
        </g>
    </g>
</svg>