<?xml version="1.0" encoding="UTF-8" standalone="no"?>
<svg width="64px" height="93px" viewBox="0 0 64 93" version="1.1" xmlns="http://www.w3.org/2000/svg" xmlns:xlink="http://www.w3.org/1999/xlink">
    <!-- Generator: sketchtool 40.3 (33839) - http://www.bohemiancoding.com/sketch -->
    <title>3CF4EFB2-1638-4632-9F3E-F6298697712F</title>
    <desc>Created with sketchtool.</desc>
    <defs></defs>
    <g id="Page-1" stroke="none" stroke-width="1" fill="none" fill-rule="evenodd" stroke-linecap="round" stroke-linejoin="round">
        <g id="Knowledge-base-1" transform="translate(-216.000000, -899.000000)" stroke-width="2" stroke="#FFFFFF">
            <g id="Group-2" transform="translate(150.000000, 441.000000)">
                <g id="Group-10" transform="translate(67.000000, 459.000000)">
                    <g id="Page-1">
                        <path d="M30.998772,90.8913056 L30.998772,62.1883889" id="Stroke-1"></path>
                        <path d="M61.997418,31.0944472 C61.997418,48.2669056 48.118518,62.1886417 30.998898,62.1886417 C13.878018,62.1886417 0.000378,48.2669056 0.000378,31.0944472 C0.000378,13.9219889 13.878018,0.000252777778 30.998898,0.000252777778 C48.118518,0.000252777778 61.997418,13.9219889 61.997418,31.0944472 L61.997418,31.0944472 Z" id="Stroke-3"></path>
                        <path d="M30.998772,62.1887681 C24.792012,61.2370597 21.207312,58.0116153 16.428132,53.2176847 C6.887412,43.6475181 6.887412,28.1320181 16.428132,18.5618514 C24.059952,10.9064764 36.434412,10.9064764 44.066232,18.5618514 C50.172192,24.6866569 50.172192,34.6170319 44.066232,40.7418375 C39.181212,45.6406708 31.262112,45.6406708 26.377092,40.7418375 C22.469832,36.8212542 22.469832,30.4664208 26.377092,26.5471014 C29.503152,23.4113931 34.572132,23.4113931 37.698192,26.5471014 C40.199292,29.0559208 40.199292,33.1231153 37.698192,35.6306708 C35.697312,37.6377264 32.454072,37.6377264 30.453192,35.6306708 C28.852992,34.0255319 28.852992,31.4231847 30.453192,29.8167819" id="Stroke-5"></path>
                    </g>
                </g>
            </g>
        </g>
    </g>
</svg>