<?xml version="1.0" encoding="UTF-8" standalone="no"?>
<svg width="21px" height="12px" viewBox="0 0 21 12" version="1.1" xmlns="http://www.w3.org/2000/svg" xmlns:xlink="http://www.w3.org/1999/xlink">
    <!-- Generator: sketchtool 40.3 (33839) - http://www.bohemiancoding.com/sketch -->
    <title>0F102D84-CCB2-4769-9301-3C722BD46BAB</title>
    <desc>Created with sketchtool.</desc>
    <defs></defs>
    <g id="Page-1" stroke="none" stroke-width="1" fill="none" fill-rule="evenodd">
        <g id="Main" transform="translate(-1162.000000, -3456.000000)" fill="#737373">
            <g id="Footer" transform="translate(41.000000, 3311.000000)">
                <g id="Social-Icons" transform="translate(1059.000000, 131.000000)">
                    <g id="Page-1" transform="translate(62.000000, 14.000000)">
                        <path d="M10.2915433,11.9497347 L11.548793,11.9497347 C11.548793,11.9497347 11.9284715,11.9078116 12.1226067,11.6989366 C12.3010393,11.5069494 12.2953359,11.1466771 12.2953359,11.1466771 C12.2953359,11.1466771 12.270745,9.45975228 13.0535818,9.21125029 C13.8256045,8.96645176 14.8167237,10.8417344 15.8671724,11.5627975 C16.661564,12.1083909 17.2652275,11.9889173 17.2652275,11.9889173 L20.0742998,11.9497347 C20.0742998,11.9497347 21.5436836,11.859 20.8469151,10.7037436 C20.7898819,10.6093054 20.4410162,9.84913377 18.7582393,8.28716363 C16.9967268,6.65223537 17.2328593,6.91681036 19.35457,4.08892444 C20.6467062,2.36674274 21.1631904,1.31540528 21.0017937,0.865064874 C20.8479521,0.436056381 19.8975709,0.549382174 19.8975709,0.549382174 L16.7348183,0.569010498 C16.7348183,0.569010498 16.5001673,0.537012627 16.3264011,0.641079777 C16.1564124,0.742702645 16.0473085,0.980316465 16.0473085,0.980316465 C16.0473085,0.980316465 15.546527,2.31296854 14.879164,3.44644867 C13.4708133,5.83777105 12.9075915,5.96435522 12.6773846,5.81562437 C12.1417165,5.46957332 12.2756336,4.42542057 12.2756336,3.68346994 C12.2756336,1.36584637 12.6271657,0.399614361 11.5910865,0.149482856 C11.2473316,0.0664513437 10.9940892,0.0115661066 10.1148144,0.00267780913 C8.98629686,-0.00887697762 8.03124929,0.00615905898 7.49039639,0.271030324 C7.13056848,0.447314891 6.85295732,0.839807295 7.02213125,0.862472454 C7.23122845,0.890322452 7.70453029,0.99024173 7.95555062,1.33170049 C8.27967721,1.77278226 8.26834463,2.7629386 8.26834463,2.7629386 C8.26834463,2.7629386 8.45462853,5.49105337 7.83333653,5.82991972 C7.40714267,6.0623487 6.82229269,5.58778768 5.56667253,3.41815426 C4.92345607,2.30689487 4.43763654,1.07830994 4.43763654,1.07830994 C4.43763654,1.07830994 4.34408721,0.848769662 4.17698722,0.72581488 C3.97433404,0.577009966 3.69116769,0.529753851 3.69116769,0.529753851 L0.685589895,0.549382174 C0.685589895,0.549382174 0.234508797,0.562047998 0.0687420487,0.758183096 C-0.0787296206,0.932838142 0.0569650545,1.29370302 0.0569650545,1.29370302 C0.0569650545,1.29370302 2.40984554,6.79867007 5.07426085,9.57278179 C7.51757976,12.1166866 10.2915433,11.9497347 10.2915433,11.9497347" id="Fill-1"></path>
                    </g>
                </g>
            </g>
        </g>
    </g>
</svg>