<?xml version="1.0" encoding="UTF-8" standalone="no"?>
<svg width="14px" height="14px" viewBox="0 0 14 14" version="1.1" xmlns="http://www.w3.org/2000/svg" xmlns:xlink="http://www.w3.org/1999/xlink">
    <!-- Generator: sketchtool 40.3 (33839) - http://www.bohemiancoding.com/sketch -->
    <title>3F2A1FAA-CD7D-4B5F-8D6C-DA3A7BA134DF</title>
    <desc>Created with sketchtool.</desc>
    <defs></defs>
    <g id="Page-1" stroke="none" stroke-width="1" fill="none" fill-rule="evenodd">
        <g id="Main" transform="translate(-1273.000000, -3455.000000)" fill="#737373">
            <g id="Footer" transform="translate(41.000000, 3311.000000)">
                <g id="Social-Icons" transform="translate(1059.000000, 131.000000)">
                    <path d="M185.33587,13 L174.66413,13 C173.745002,13 173,13.7430925 173,14.6603115 L173,25.3396885 C173,26.2565257 173.745002,27 174.66413,27 L185.33587,27 C186.254998,27 187,26.2565257 187,25.3396885 L187,14.6603115 C187,13.7430925 186.254998,13 185.33587,13 L185.33587,13 Z M183.062679,15.1872733 C183.062679,14.94594 183.258571,14.7496659 183.499905,14.7496659 L184.812345,14.7496659 C185.05406,14.7496659 185.249952,14.94594 185.249952,15.1872733 L185.249952,16.4997136 C185.249952,16.7414287 185.05406,16.937321 184.812345,16.937321 L183.499905,16.937321 C183.258571,16.937321 183.062679,16.7414287 183.062679,16.4997136 L183.062679,15.1872733 L183.062679,15.1872733 Z M180.016229,17.3302512 C181.503178,17.3302512 182.708698,18.5330988 182.708698,20.015847 C182.708698,21.4997409 181.503178,22.7022066 180.016229,22.7022066 C178.529662,22.7022066 177.324142,21.4997409 177.324142,20.015847 C177.324142,18.5330988 178.529662,17.3302512 180.016229,17.3302512 L180.016229,17.3302512 Z M185.68756,25.2499523 C185.68756,25.4912855 185.491667,25.6875597 185.249952,25.6875597 L174.750048,25.6875597 C174.508333,25.6875597 174.31244,25.4912855 174.31244,25.2499523 L174.31244,18.6873687 L176.062488,18.6873687 C175.83452,19.0153834 175.757385,19.6274991 175.757385,20.015847 C175.757385,22.3589177 177.668194,24.2651447 180.016229,24.2651447 C182.364646,24.2651447 184.275455,22.3589177 184.275455,20.015847 C184.275455,19.6274991 184.220086,19.0245479 183.937512,18.6873687 L185.68756,18.6873687 L185.68756,25.2499523 L185.68756,25.2499523 Z" id="Instagram"></path>
                </g>
            </g>
        </g>
    </g>
</svg>